<svg xmlns="http://www.w3.org/2000/svg" viewBox="0 0 155.16 155.16"><defs><style>.cls-1{fill:none;stroke:#d1db2e;stroke-miterlimit:10;stroke-width:5px;}.cls-2{fill:#d1db2e;}.cls-3{fill:#fd4f9e;}</style></defs><title>logo_min</title><g id="Layer_2" data-name="Layer 2"><g id="Layer_2-2" data-name="Layer 2"><rect class="cls-1" x="2.5" y="2.5" width="150.16" height="150.16" rx="30"/><path class="cls-2" d="M103.65,71.33v50.05a4.17,4.17,0,1,1-8.34,0V100.52H59.86v20.86a4.18,4.18,0,0,1-8.35,0v-50a4.18,4.18,0,1,1,8.35,0V92.19H95.31V71.33a4.17,4.17,0,1,1,8.34,0Z"/><path class="cls-2" d="M43.17,119.3A4.18,4.18,0,0,1,39,115.12V77.58a4.17,4.17,0,0,1,8.34,0v37.54A4.18,4.18,0,0,1,43.17,119.3Z"/><path class="cls-2" d="M30.66,113a4.18,4.18,0,0,1-4.18-4.17v-25a4.18,4.18,0,0,1,8.35,0v25A4.17,4.17,0,0,1,30.66,113Z"/><path class="cls-2" d="M112,119.3a4.18,4.18,0,0,1-4.17-4.18V77.58a4.18,4.18,0,0,1,8.35,0v37.54A4.18,4.18,0,0,1,112,119.3Z"/><path class="cls-2" d="M124.51,113a4.17,4.17,0,0,1-4.17-4.17v-25a4.17,4.17,0,1,1,8.34,0v25A4.17,4.17,0,0,1,124.51,113Z"/><path class="cls-3" d="M130.76,69.24a4.14,4.14,0,0,1-2.11-.58l-51.07-30-51.07,30a4.17,4.17,0,0,1-4.23-7.19L75.47,30.19a4.16,4.16,0,0,1,4.23,0l53.18,31.28a4.17,4.17,0,0,1-2.12,7.77Z"/></g></g></svg>