<svg xmlns="http://www.w3.org/2000/svg" viewBox="0 0 241.53 278.46"><defs><style>.cls-1{fill:#d1db2e;}.cls-2{fill:#fd4f9e;}</style></defs><title>logo</title><g id="Layer_2" data-name="Layer 2"><g id="Layer_2-2" data-name="Layer 2"><path class="cls-1" d="M163,68.7v82.51a6.81,6.81,0,1,1-13.62,0V116.77H92.11v34.44a6.81,6.81,0,1,1-13.62,0V68.7a6.81,6.81,0,1,1,13.62,0v34.45h57.31V68.7a6.81,6.81,0,1,1,13.62,0Z"/><path class="cls-1" d="M65,147.71a6.81,6.81,0,0,1-6.82-6.81V79a6.82,6.82,0,0,1,13.63,0V140.9A6.81,6.81,0,0,1,65,147.71Z"/><path class="cls-1" d="M44.77,137.4A6.81,6.81,0,0,1,38,130.58V89.33a6.82,6.82,0,1,1,13.63,0v41.25A6.82,6.82,0,0,1,44.77,137.4Z"/><path class="cls-1" d="M176.5,147.71a6.81,6.81,0,0,1-6.82-6.81V79a6.82,6.82,0,0,1,13.63,0V140.9A6.81,6.81,0,0,1,176.5,147.71Z"/><path class="cls-1" d="M196.76,137.4a6.81,6.81,0,0,1-6.81-6.82V89.33a6.82,6.82,0,1,1,13.63,0v41.25A6.82,6.82,0,0,1,196.76,137.4Z"/><path class="cls-2" d="M206.89,65.2a6.78,6.78,0,0,1-3.5-1L120.77,14.76,38.14,64.23a6.81,6.81,0,1,1-7-11.69L117.26,1a6.83,6.83,0,0,1,7,0L210.4,52.54a6.82,6.82,0,0,1-3.51,12.66Z"/><path class="cls-2" d="M14.27,208.1q-3.19-1.11-5.8-2.25A17.66,17.66,0,0,1,4,203.08a11.48,11.48,0,0,1-2.93-3.87,12.92,12.92,0,0,1-1-5.49,12.13,12.13,0,0,1,4.74-10Q9.5,179.94,18,179.94a35.14,35.14,0,0,1,5.8.44,17.12,17.12,0,0,1,4.6,1.36,8,8,0,0,1,3,2.36,5.39,5.39,0,0,1,1.09,3.36,6,6,0,0,1-.87,3.28,9.16,9.16,0,0,1-2.1,2.32,16.32,16.32,0,0,0-4.27-1.81,21.38,21.38,0,0,0-5.87-.77,9.49,9.49,0,0,0-4.78.92,2.69,2.69,0,0,0-1.52,2.32,2.16,2.16,0,0,0,.94,1.81,9.81,9.81,0,0,0,2.83,1.29l3.83,1.25a27.81,27.81,0,0,1,10.47,5.64A12.18,12.18,0,0,1,34.84,213,12.34,12.34,0,0,1,30,223.17q-4.86,3.89-14.27,3.87a32.58,32.58,0,0,1-6.2-.55,19.49,19.49,0,0,1-5-1.62,9.19,9.19,0,0,1-3.33-2.65A5.9,5.9,0,0,1,0,218.57a5.59,5.59,0,0,1,1.23-3.65,9.3,9.3,0,0,1,2.68-2.32,19.81,19.81,0,0,0,5,2.8,17.16,17.16,0,0,0,6.41,1.18c2.37,0,4-.37,5-1.11a3.2,3.2,0,0,0,1.45-2.58,2.55,2.55,0,0,0-1.16-2.25,14.59,14.59,0,0,0-3.26-1.51Z"/><path class="cls-2" d="M49.18,225.66a14,14,0,0,1-1.75.31,18.82,18.82,0,0,1-2.36.15,10.35,10.35,0,0,1-2-.18,3.65,3.65,0,0,1-1.5-.64,2.81,2.81,0,0,1-.91-1.29,6.47,6.47,0,0,1-.3-2.17V197.53a2.26,2.26,0,0,1,.58-1.67,4.09,4.09,0,0,1,1.6-1,18.81,18.81,0,0,1,3.93-.9,34.45,34.45,0,0,1,4.43-.29q7,0,10.7,3a10.12,10.12,0,0,1,3.7,8.26,12.47,12.47,0,0,1-.79,4.56,9.43,9.43,0,0,1-2.33,3.51,10.38,10.38,0,0,1-3.9,2.27,16.77,16.77,0,0,1-5.45.8h-3.6Zm2.63-16.57a4.82,4.82,0,0,0,3.28-1A3.89,3.89,0,0,0,56.23,205,3.83,3.83,0,0,0,55,202a5.08,5.08,0,0,0-3.48-1.06l-1.34,0a8.3,8.3,0,0,0-1.09.13v8Z"/><path class="cls-2" d="M68.24,210.18a19.23,19.23,0,0,1,1.24-7.13,14.74,14.74,0,0,1,3.4-5.18A14.46,14.46,0,0,1,78,194.7a18.84,18.84,0,0,1,12.63,0,14.29,14.29,0,0,1,8.51,8.35,19,19,0,0,1,1.25,7.13,19.57,19.57,0,0,1-1.22,7.14,14,14,0,0,1-8.47,8.39,18.39,18.39,0,0,1-6.39,1.08,18.11,18.11,0,0,1-6.38-1.1,14.33,14.33,0,0,1-5.08-3.23,15.07,15.07,0,0,1-3.34-5.21A19.26,19.26,0,0,1,68.24,210.18Zm9.13,0q0,4.69,1.87,7a6.65,6.65,0,0,0,10.09,0q1.88-2.32,1.88-7t-1.85-7a6.1,6.1,0,0,0-5-2.32,6.22,6.22,0,0,0-5,2.29C78,204.71,77.37,207.05,77.37,210.18Z"/><path class="cls-2" d="M114.23,215.75v9.91a14.31,14.31,0,0,1-1.75.31,18.94,18.94,0,0,1-2.36.15,10.35,10.35,0,0,1-2.05-.18,3.36,3.36,0,0,1-1.47-.64,2.85,2.85,0,0,1-.89-1.29,6.44,6.44,0,0,1-.31-2.17V197.53a2.27,2.27,0,0,1,.59-1.67,4.12,4.12,0,0,1,1.59-1,19,19,0,0,1,4-.9,39.25,39.25,0,0,1,4.87-.29q7,0,10.54,3a10,10,0,0,1,3.55,8.1,9.17,9.17,0,0,1-1.62,5.47,11.86,11.86,0,0,1-3.85,3.51q1.82,2.53,3.6,4.75a31.63,31.63,0,0,1,2.79,4,4.82,4.82,0,0,1-1.86,2.76,5,5,0,0,1-3,1,6.44,6.44,0,0,1-1.93-.26,4.63,4.63,0,0,1-1.42-.72,5.73,5.73,0,0,1-1.11-1.14,15.71,15.71,0,0,1-1-1.44l-4.26-7Zm3.19-6.86a4.37,4.37,0,0,0,3-1,3.77,3.77,0,0,0,1.12-3,3.61,3.61,0,0,0-1.24-3,6.17,6.17,0,0,0-3.93-1c-.51,0-.92,0-1.22.05s-.64.09-1,.15v7.75Z"/><path class="cls-2" d="M134.1,201.82a6.59,6.59,0,0,1-.66-1.55,7,7,0,0,1-.3-2.07,4,4,0,0,1,.88-2.89,3.19,3.19,0,0,1,2.31-.87h22.11a7.32,7.32,0,0,1,.66,1.55,7,7,0,0,1,.3,2.06,4,4,0,0,1-.89,2.89,3.11,3.11,0,0,1-2.3.88h-5.63v23.84a14,14,0,0,1-1.75.31,18.94,18.94,0,0,1-2.36.15,10.35,10.35,0,0,1-2.05-.18,3.65,3.65,0,0,1-1.5-.64A2.81,2.81,0,0,1,142,224a6.47,6.47,0,0,1-.3-2.17v-20Z"/><path class="cls-2" d="M160.87,210.18a19,19,0,0,1,1.24-7.13,14.74,14.74,0,0,1,3.4-5.18,14.46,14.46,0,0,1,5.07-3.17,18.81,18.81,0,0,1,12.62,0,14.27,14.27,0,0,1,8.52,8.35,19,19,0,0,1,1.24,7.13,19.57,19.57,0,0,1-1.21,7.14,14,14,0,0,1-8.47,8.39,18.39,18.39,0,0,1-6.39,1.08,18.17,18.17,0,0,1-6.39-1.1,14.38,14.38,0,0,1-5.07-3.23,14.92,14.92,0,0,1-3.34-5.21A19.26,19.26,0,0,1,160.87,210.18Zm9.13,0q0,4.69,1.87,7a6.65,6.65,0,0,0,10.09,0q1.88-2.32,1.88-7t-1.85-7a6.11,6.11,0,0,0-5.05-2.32,6.22,6.22,0,0,0-5,2.29C170.63,204.71,170,207.05,170,210.18Z"/><path class="cls-2" d="M202.75,226a4.63,4.63,0,0,1-3.45-1.29,4.81,4.81,0,0,1-1.27-3.51V194.54c.38-.07,1-.16,1.78-.28a15.94,15.94,0,0,1,2.33-.18,10.53,10.53,0,0,1,2.06.18,3.61,3.61,0,0,1,1.49.64,2.74,2.74,0,0,1,.91,1.29,6.2,6.2,0,0,1,.31,2.17v20.38h11.61a7.57,7.57,0,0,1,.66,1.53,6.55,6.55,0,0,1,.3,2,4,4,0,0,1-.86,2.92,3.11,3.11,0,0,1-2.28.85Z"/><path class="cls-2" d="M232.66,194.59c.37-.07,1-.16,1.78-.28a15.84,15.84,0,0,1,2.33-.18,10.42,10.42,0,0,1,2,.18,3.65,3.65,0,0,1,1.5.64,2.81,2.81,0,0,1,.91,1.29,6.51,6.51,0,0,1,.3,2.17V217.5c0,3.07-.86,5.36-2.58,6.89s-4.26,2.3-7.61,2.3a9.48,9.48,0,0,1-4.26-.82,3.71,3.71,0,0,1-1.69-1.55,4.53,4.53,0,0,1-.54-2.22,5.5,5.5,0,0,1,.28-1.81,4,4,0,0,1,.69-1.24,16.52,16.52,0,0,0,1.64.29,14,14,0,0,0,1.5.07,3.56,3.56,0,0,0,2.84-1,4.48,4.48,0,0,0,.86-3Z"/><path class="cls-1" d="M33.18,258.67a22.71,22.71,0,0,1,1.47-8.47A17.67,17.67,0,0,1,38.7,244a17.13,17.13,0,0,1,6-3.78,22.53,22.53,0,0,1,15,0,17,17,0,0,1,10.14,10,22.51,22.51,0,0,1,1.48,8.47,23.18,23.18,0,0,1-1.45,8.51,16.64,16.64,0,0,1-10.08,10,21.77,21.77,0,0,1-7.6,1.29,21.42,21.42,0,0,1-7.61-1.32,16.91,16.91,0,0,1-6-3.84,17.7,17.7,0,0,1-4-6.21A22.8,22.8,0,0,1,33.18,258.67Zm10.86,0q0,5.59,2.23,8.36a7.3,7.3,0,0,0,6,2.76,7.37,7.37,0,0,0,6-2.76c1.48-1.84,2.23-4.63,2.23-8.36s-.74-6.45-2.2-8.29a7.3,7.3,0,0,0-6-2.77,7.42,7.42,0,0,0-6,2.74C44.8,252.17,44,255,44,258.67Z"/><path class="cls-1" d="M75.06,257.31a5.52,5.52,0,0,1-.55-1.29,5.73,5.73,0,0,1-.26-1.72,3.31,3.31,0,0,1,.74-2.41,2.63,2.63,0,0,1,1.93-.73H95.34a6.21,6.21,0,0,1,.55,1.29,5.77,5.77,0,0,1,.25,1.72,3.31,3.31,0,0,1-.74,2.41,2.59,2.59,0,0,1-1.92.73H88.79v19.87a13.8,13.8,0,0,1-1.46.26,16.4,16.4,0,0,1-2,.13,9.66,9.66,0,0,1-1.72-.15,3.12,3.12,0,0,1-1.24-.54,2.33,2.33,0,0,1-.76-1.08,5.3,5.3,0,0,1-.25-1.8V257.31Z"/><path class="cls-1" d="M100.7,257.31a6,6,0,0,1-.55-1.29,6.06,6.06,0,0,1-.25-1.72,3.31,3.31,0,0,1,.74-2.41,2.59,2.59,0,0,1,1.92-.73H121a5.72,5.72,0,0,1,.55,1.29,5.78,5.78,0,0,1,.26,1.72,3.31,3.31,0,0,1-.74,2.41,2.62,2.62,0,0,1-1.92.73h-4.69v19.87a13.8,13.8,0,0,1-1.46.26,16.43,16.43,0,0,1-2,.13,9.63,9.63,0,0,1-1.71-.15,3.06,3.06,0,0,1-1.24-.54,2.26,2.26,0,0,1-.76-1.08A5.28,5.28,0,0,1,107,274V257.31Z"/><path class="cls-1" d="M149.12,277.18a13.33,13.33,0,0,1-1.46.26,16.26,16.26,0,0,1-2,.13,9.46,9.46,0,0,1-1.71-.15,3.17,3.17,0,0,1-1.25-.54,2.33,2.33,0,0,1-.76-1.08,5.3,5.3,0,0,1-.25-1.8v-6.71h-8.11v9.89a13.8,13.8,0,0,1-1.46.26,16.43,16.43,0,0,1-2,.13,9.63,9.63,0,0,1-1.71-.15,3.06,3.06,0,0,1-1.24-.54,2.33,2.33,0,0,1-.76-1.08,5.28,5.28,0,0,1-.26-1.8V251.29l1.48-.24a13.31,13.31,0,0,1,2-.15,8.77,8.77,0,0,1,1.71.15,3,3,0,0,1,1.24.54,2.33,2.33,0,0,1,.76,1.08,5.24,5.24,0,0,1,.26,1.8v6.88h8.11V251.29c.31-.06.8-.14,1.48-.24a13.18,13.18,0,0,1,1.94-.15,8.63,8.63,0,0,1,1.71.15,3,3,0,0,1,1.25.54,2.33,2.33,0,0,1,.76,1.08,5.26,5.26,0,0,1,.25,1.8Z"/><path class="cls-1" d="M154.19,264.28a15.86,15.86,0,0,1,1-5.94,11.89,11.89,0,0,1,7.05-7,15.82,15.82,0,0,1,10.52,0,12.36,12.36,0,0,1,4.25,2.65,12.16,12.16,0,0,1,2.85,4.32,15.86,15.86,0,0,1,1,5.94,16.2,16.2,0,0,1-1,6,11.65,11.65,0,0,1-7,7,15.37,15.37,0,0,1-5.33.91,14.87,14.87,0,0,1-5.32-.93,11.82,11.82,0,0,1-4.22-2.69,12.2,12.2,0,0,1-2.79-4.34A15.91,15.91,0,0,1,154.19,264.28Zm7.61,0q0,3.92,1.56,5.84a5.53,5.53,0,0,0,8.41,0q1.56-1.92,1.56-5.84t-1.54-5.81a5.08,5.08,0,0,0-4.2-1.93,5.18,5.18,0,0,0-4.21,1.91Q161.81,260.37,161.8,264.28Z"/><path class="cls-1" d="M208.36,276.45a3.86,3.86,0,0,1-1.71.92,9.65,9.65,0,0,1-2.69.33,9.09,9.09,0,0,1-3-.48,4.15,4.15,0,0,1-2.28-2.28l-4.18-8.69c-.42-.88-.8-1.72-1.14-2.51s-.7-1.7-1.1-2.73l-.25,0c.11,1.55.17,3.13.19,4.73s0,3.18,0,4.73v6.67a13.61,13.61,0,0,1-1.42.26,15,15,0,0,1-1.88.13,9.82,9.82,0,0,1-1.64-.13,2.34,2.34,0,0,1-1.91-1.57,5.26,5.26,0,0,1-.25-1.74V252.62a3.6,3.6,0,0,1,1.82-1.29,8,8,0,0,1,2.62-.43,9,9,0,0,1,3,.5,4.1,4.1,0,0,1,2.26,2.25l4.22,8.69q.63,1.34,1.14,2.52c.34.79.71,1.7,1.1,2.73l.21,0q-.16-2.32-.21-4.65c0-1.55,0-3.1,0-4.64v-7a11.5,11.5,0,0,1,1.41-.26,13.41,13.41,0,0,1,1.88-.13,4.93,4.93,0,0,1,2.83.67c.65.44,1,1.37,1,2.77Z"/></g></g></svg>